# xmcd
#
# Track frame offsets:
#	150
#	13640
#	25220
#	37192
#	50342
#	61252
#	76742
#	88375
#	106835
#	116962
#	125070
#	139582
#	152662
#	167190
#	181175
#	194517
#	204292
#	217867
#	231197
#	244662
#	254787
#	268322
#	277222
#	288600
#	300092
#	307852
#	318645
#	328820
#
# Disc length: 4573 seconds
#
# Revision: 3
# Processed by: cddbd v1.5.2PL0 Copyright (c) Steve Scherf et al.
# Submitted via: EasyCDDAExtractor 11.0.0.1
#
DISCID=9f11db1c
DTITLE=Country Gentlemen - The Early Rebel Recordings Disc Three
DYEAR=1998
DGENRE=Country
TTITLE0=To The Rescue
TTITLE1=Rodger Young
TTITLE2=Green Green Grass of Home
TTITLE3=Along The Way
TTITLE4=Let's
TTITLE5=Rambling Boy
TTITLE6=Gentlemen's Concerto
TTITLE7=Take Me To The Valley
TTITLE8=Fare-Thee-Well Cisco
TTITLE9=Preaching, Praying, Singing
TTITLE10=Mrs. Robinson
TTITLE11=Two Little Boys
TTITLE12=Doin' My Time
TTITLE13=Rank Strangers
TTITLE14=Heaven
TTITLE15=Gone Home
TTITLE16=Rank Strangers
TTITLE17=I'm Using My Bible For A Roadmap
TTITLE18=Over The Hills To The Poorhouse
TTITLE19=Little White Church
TTITLE20=Heaven
TTITLE21=Bill Bailey
TTITLE22=He Will Set Your Fields On Fire
TTITLE23=Are You Washed In The Blood
TTITLE24=One Wide River
TTITLE25=On The Sunny Side Of Life
TTITLE26=Born Again
TTITLE27=I'll Break Out Again
EXTD=
EXTT0=
EXTT1=
EXTT2=
EXTT3=
EXTT4=
EXTT5=
EXTT6=
EXTT7=
EXTT8=
EXTT9=
EXTT10=
EXTT11=
EXTT12=
EXTT13=
EXTT14=
EXTT15=
EXTT16=
EXTT17=
EXTT18=
EXTT19=
EXTT20=
EXTT21=
EXTT22=
EXTT23=
EXTT24=
EXTT25=
EXTT26=
EXTT27=
PLAYORDER=
